<svg xmlns="http://www.w3.org/2000/svg" version="1.1" xmlns:xlink="http://www.w3.org/1999/xlink" xmlns:svgjs="http://svgjs.com/svgjs" width="1440" height="300" preserveAspectRatio="none" viewBox="0 0 1440 300"><g mask="url(&quot;#SvgjsMask4379&quot;)" fill="none"><rect width="1440" height="300" x="0" y="0" fill="rgba(255, 255, 255, 1)"></rect><circle r="25" cx="1323.84" cy="101.56" fill="rgba(23, 203, 35, 1)"></circle><path d="M1456.1299999999999 236.62 L1484.6899999999998 238.68L1487.9799510215043 220.08004897849543z" stroke="rgba(14, 29, 205, 1)" stroke-width="1.8" stroke-dasharray="4, 4"></path><path d="M401.65 178.38a5.6 5.6 0 1 0 0.41-11.2 5.6 5.6 0 1 0-0.41 11.2zM402.23 162.39a5.6 5.6 0 1 0 0.4-11.2 5.6 5.6 0 1 0-0.4 11.2zM402.8 146.4a5.6 5.6 0 1 0 0.4-11.2 5.6 5.6 0 1 0-0.4 11.2zM403.37 130.41a5.6 5.6 0 1 0 0.4-11.2 5.6 5.6 0 1 0-0.4 11.2z" fill="rgba(23, 203, 35, 1)"></path><rect width="60" height="60" clip-path="url(&quot;#SvgjsClipPath4380&quot;)" x="242.76" y="15.45" fill="url(#SvgjsPattern4381)" transform="rotate(297.04, 272.76, 45.45)"></rect><circle r="25" cx="1161.41" cy="40.4" stroke="rgba(23, 203, 35, 1)" stroke-width="2.37" stroke-dasharray="4, 4"></circle><circle r="26.6774411109856" cx="554.61" cy="189.43" fill="rgba(23, 203, 35, 1)"></circle><rect width="121" height="121" clip-path="url(&quot;#SvgjsClipPath4382&quot;)" x="1171.46" y="67.08" fill="url(#SvgjsPattern4383)" transform="rotate(188.34, 1231.96, 127.58)"></rect><path d="M359.49 159.07 L334.5 182.79L323.8589777400836 147.7939777400836z" fill="rgba(237, 45, 45, 1)"></path><rect width="120" height="120" clip-path="url(&quot;#SvgjsClipPath4384&quot;)" x="708.17" y="71.92" fill="url(#SvgjsPattern4385)" transform="rotate(164.56, 768.17, 131.92)"></rect><path d="M242.57 199.10999999999999 L232.12 175.69L246.70938650429875 178.03561349570123z" stroke="rgba(237, 45, 45, 1)" stroke-width="1" stroke-dasharray="3, 3"></path><rect width="96" height="96" clip-path="url(&quot;#SvgjsClipPath4386&quot;)" x="971.94" y="31.94" fill="url(#SvgjsPattern4387)" transform="rotate(131.49, 1019.94, 79.94)"></rect><rect width="120" height="120" clip-path="url(&quot;#SvgjsClipPath4388&quot;)" x="921.13" y="55.88" fill="url(#SvgjsPattern4389)" transform="rotate(9.33, 981.13, 115.88)"></rect><path d="M292.08 28.62L298.69 17.65 310.84 21.7 317.45 10.73 329.61 14.77 336.22 3.8 348.37 7.84M294.85 36.13L301.46 25.16 313.61 29.2 320.22 18.23 332.38 22.27 338.99 11.31 351.14 15.35" stroke="rgba(237, 45, 45, 1)" stroke-width="1"></path><rect width="144" height="144" clip-path="url(&quot;#SvgjsClipPath4390&quot;)" x="912.13" y="0.04" fill="url(#SvgjsPattern4391)" transform="rotate(29.75, 984.13, 72.04)"></rect><rect width="180" height="180" clip-path="url(&quot;#SvgjsClipPath4392&quot;)" x="1187.55" y="171.64" fill="url(#SvgjsPattern4393)" transform="rotate(205.29, 1277.55, 261.64)"></rect><path d="M865.24 34.93a5.6 5.6 0 1 0 6.22-9.31 5.6 5.6 0 1 0-6.22 9.31zM874.12 21.63a5.6 5.6 0 1 0 6.22-9.31 5.6 5.6 0 1 0-6.22 9.31zM883.01 8.32a5.6 5.6 0 1 0 6.22-9.31 5.6 5.6 0 1 0-6.22 9.31zM891.9-4.98a5.6 5.6 0 1 0 6.22-9.31 5.6 5.6 0 1 0-6.22 9.31z" stroke="rgba(211, 20, 20, 1)" stroke-width="2.18" stroke-dasharray="4, 4"></path><rect width="144" height="144" clip-path="url(&quot;#SvgjsClipPath4394&quot;)" x="280.1" y="159.91" fill="url(#SvgjsPattern4395)" transform="rotate(187.9, 352.1, 231.91)"></rect><path d="M574.07 260.53L569.78 272.6 557.07 271.06 552.78 283.13 540.06 281.6 535.78 293.66 523.06 292.13M569.85 253.73L565.57 265.8 552.85 264.26 548.56 276.33 535.85 274.8 531.56 286.86 518.85 285.33" stroke="rgba(237, 45, 45, 1)" stroke-width="2.02" stroke-dasharray="3, 2"></path><circle r="25" cx="958.77" cy="154.49" fill="rgba(237, 218, 45, 1)"></circle><path d="M860.2 209.25 L933.4000000000001 290.29L836.9341997474912 309.63580025250883z" stroke="rgba(23, 203, 35, 1)" stroke-width="1" stroke-dasharray="3, 2"></path><path d="M13.62 187.44a5.6 5.6 0 1 0-9.53-5.88 5.6 5.6 0 1 0 9.53 5.88zM0 179.04a5.6 5.6 0 1 0-9.53-5.87 5.6 5.6 0 1 0 9.53 5.87zM-13.62 170.65a5.6 5.6 0 1 0-9.54-5.87 5.6 5.6 0 1 0 9.54 5.87zM-27.25 162.26a5.6 5.6 0 1 0-9.53-5.87 5.6 5.6 0 1 0 9.53 5.87zM49.26 190.59a5.6 5.6 0 1 0-9.53-5.87 5.6 5.6 0 1 0 9.53 5.87zM35.64 182.2a5.6 5.6 0 1 0-9.54-5.87 5.6 5.6 0 1 0 9.54 5.87zM22.02 173.81a5.6 5.6 0 1 0-9.54-5.87 5.6 5.6 0 1 0 9.54 5.87zM8.39 165.42a5.6 5.6 0 1 0-9.53-5.87 5.6 5.6 0 1 0 9.53 5.87zM84.9 193.75a5.6 5.6 0 1 0-9.54-5.87 5.6 5.6 0 1 0 9.54 5.87zM71.28 185.36a5.6 5.6 0 1 0-9.54-5.87 5.6 5.6 0 1 0 9.54 5.87zM57.65 176.97a5.6 5.6 0 1 0-9.53-5.87 5.6 5.6 0 1 0 9.53 5.87zM44.03 168.58a5.6 5.6 0 1 0-9.54-5.87 5.6 5.6 0 1 0 9.54 5.87z" stroke="rgba(211, 20, 20, 1)" stroke-width="1.62" stroke-dasharray="3, 3"></path><path d="M3.78 83.96L14.48 91 9.96 102.98 20.65 110.02 16.13 122.01 26.83 129.05 22.31 141.03M-3.83 86.43L6.87 93.47 2.35 105.45 13.05 112.49 8.53 124.48 19.22 131.52 14.7 143.5" stroke="rgba(23, 203, 35, 1)" stroke-width="1" stroke-dasharray="3, 3"></path></g><defs><mask id="SvgjsMask4379"><rect width="1440" height="300" fill="#ffffff"></rect></mask><pattern x="0" y="0" width="60" height="6" patternUnits="userSpaceOnUse" id="SvgjsPattern4381"><rect width="60" height="3" x="0" y="0" fill="rgba(14, 29, 205, 1)"></rect><rect width="60" height="3" x="0" y="3" fill="rgba(0, 0, 0, 0)"></rect></pattern><clipPath id="SvgjsClipPath4380"><circle r="15" cx="272.76" cy="45.45"></circle></clipPath><pattern x="0" y="0" width="121" height="12.1" patternUnits="userSpaceOnUse" id="SvgjsPattern4383"><rect width="121" height="6.05" x="0" y="0" fill="rgba(237, 45, 45, 1)"></rect><rect width="121" height="6.05" x="0" y="6.05" fill="rgba(0, 0, 0, 0)"></rect></pattern><clipPath id="SvgjsClipPath4382"><circle r="30.25" cx="1231.96" cy="127.58"></circle></clipPath><pattern x="0" y="0" width="120" height="6" patternUnits="userSpaceOnUse" id="SvgjsPattern4385"><rect width="120" height="3" x="0" y="0" fill="rgba(211, 20, 20, 1)"></rect><rect width="120" height="3" x="0" y="3" fill="rgba(0, 0, 0, 0)"></rect></pattern><clipPath id="SvgjsClipPath4384"><circle r="30" cx="768.17" cy="131.92"></circle></clipPath><pattern x="0" y="0" width="96" height="6" patternUnits="userSpaceOnUse" id="SvgjsPattern4387"><rect width="96" height="3" x="0" y="0" fill="rgba(23, 203, 35, 1)"></rect><rect width="96" height="3" x="0" y="3" fill="rgba(0, 0, 0, 0)"></rect></pattern><clipPath id="SvgjsClipPath4386"><circle r="24" cx="1019.94" cy="79.94"></circle></clipPath><pattern x="0" y="0" width="6" height="6" patternUnits="userSpaceOnUse" id="SvgjsPattern4389"><path d="M3 1L3 5M1 3L5 3" stroke="rgba(237, 45, 45, 1)" fill="none" stroke-width="1.13"></path></pattern><clipPath id="SvgjsClipPath4388"><circle r="30" cx="981.13" cy="115.88"></circle></clipPath><pattern x="0" y="0" width="6" height="6" patternUnits="userSpaceOnUse" id="SvgjsPattern4391"><path d="M3 1L3 5M1 3L5 3" stroke="rgba(237, 218, 45, 1)" fill="none" stroke-width="1.52"></path></pattern><clipPath id="SvgjsClipPath4390"><circle r="36" cx="984.13" cy="72.04"></circle></clipPath><pattern x="0" y="0" width="180" height="6" patternUnits="userSpaceOnUse" id="SvgjsPattern4393"><rect width="180" height="3" x="0" y="0" fill="rgba(237, 218, 45, 1)"></rect><rect width="180" height="3" x="0" y="3" fill="rgba(0, 0, 0, 0)"></rect></pattern><clipPath id="SvgjsClipPath4392"><circle r="45" cx="1277.55" cy="261.64"></circle></clipPath><pattern x="0" y="0" width="144" height="6" patternUnits="userSpaceOnUse" id="SvgjsPattern4395"><rect width="144" height="3" x="0" y="0" fill="rgba(23, 203, 35, 1)"></rect><rect width="144" height="3" x="0" y="3" fill="rgba(0, 0, 0, 0)"></rect></pattern><clipPath id="SvgjsClipPath4394"><circle r="36" cx="352.1" cy="231.91"></circle></clipPath></defs></svg>